<svg width="124" height="124" viewBox="0 0 635 397" fill="none" xmlns="http://www.w3.org/2000/svg">
<rect width="635" height="397" fill="#F5F5F5"/>
<path d="M191.028 249.733C186.678 250.971 182.158 248.364 181.065 243.976L125.696 21.8597C123.756 14.0774 133.199 8.59942 138.992 14.1471L235.766 106.834C239.297 110.216 245.011 109.666 247.833 105.672L319.497 4.24366C322.683 -0.26682 329.374 -0.268106 332.562 4.24114L403.895 105.119C406.849 109.297 412.911 109.666 416.35 105.877L500.152 13.5596C505.39 7.78985 514.946 12.151 514.019 19.8881L487.298 242.978C486.725 247.764 482.057 250.957 477.393 249.74C410.809 232.365 378.602 216.78 341.337 219.282C305.925 217.399 263.906 228.99 191.028 249.733Z" fill="#F6BC2A"/>
<path d="M46.3376 243.309C41.5376 242.018 36.5999 244.862 35.3089 249.662L14.2704 327.882C12.9793 332.682 15.8239 337.62 20.6239 338.911C25.4239 340.202 30.3616 337.358 31.6526 332.558L50.3535 263.029L119.882 281.73C124.682 283.021 129.62 280.176 130.911 275.376C132.202 270.576 129.358 265.638 124.558 264.347L46.3376 243.309ZM599.724 249.788C598.503 244.97 593.606 242.054 588.788 243.276L510.272 263.181C505.454 264.403 502.538 269.299 503.76 274.117C504.981 278.935 509.878 281.851 514.696 280.629L584.488 262.936L602.181 332.728C603.403 337.546 608.299 340.462 613.117 339.24C617.935 338.019 620.851 333.122 619.629 328.304L599.724 249.788ZM36.2015 256.493C91.3442 352.212 205.281 397.514 317.561 396.75C429.815 395.986 543.61 349.169 598.733 256.605L583.267 247.395C532.39 332.831 425.685 378.014 317.439 378.75C209.219 379.486 102.656 335.788 51.7985 247.507L36.2015 256.493Z" fill="#F6BC2A"/>
<path d="M17.6155 147.319L44.3067 167.432L71.6835 148.263L60.8027 179.863L87.4939 199.976L54.078 199.393L43.1972 230.993L33.4259 199.032L0.00998506 198.449L27.3868 179.28L17.6155 147.319Z" fill="#24A098"/>
<path d="M369.653 265.194L391.412 281.591L413.73 265.964L404.86 291.725L426.619 308.121L399.378 307.646L390.507 333.407L382.542 307.352L355.3 306.877L377.618 291.249L369.653 265.194Z" fill="#24A098"/>
<path d="M217.653 265.194L239.412 281.591L261.73 265.964L252.86 291.725L274.619 308.121L247.378 307.646L238.507 333.407L230.542 307.352L203.3 306.877L225.618 291.249L217.653 265.194Z" fill="#24A098"/>
<path d="M564.615 147.319L591.307 167.432L618.683 148.263L607.803 179.863L634.494 199.976L601.078 199.393L590.197 230.993L580.426 199.032L547.01 198.449L574.387 179.28L564.615 147.319Z" fill="#24A098"/>
</svg>
